<svg xmlns="http://www.w3.org/2000/svg" viewBox="0 0 24 24">
  <!-- Background -->
  <rect width="24" height="24" fill="#007BFF" rx="4" ry="4" />
  
  <!-- Padded Armchair Icon -->
  <g transform="translate(3,3) scale(0.75)" fill="none" stroke="#FFFFFF" stroke-width="2" stroke-linecap="round" stroke-linejoin="round">
    <path d="M19 9V6a2 2 0 0 0-2-2H7a2 2 0 0 0-2 2v3"></path>
    <path d="M3 16a2 2 0 0 0 2 2h14a2 2 0 0 0 2-2v-5a2 2 0 0 0-4 0v2H7v-2a2 2 0 0 0-4 0Z"></path>
    <path d="M5 18v2"></path>
    <path d="M19 18v2"></path>
  </g>
</svg>
